<svg width="180" height="180" viewBox="0 0 180 180" fill="none" xmlns="http://www.w3.org/2000/svg">
<rect width="180" height="180" rx="36" fill="#059669"/>
<path d="M90 40C65 40 45 58 45 80C45 95 52 108 65 116L65 130C65 134 68 137 72 137L108 137C112 137 115 134 115 130L115 116C128 108 135 95 135 80C135 58 115 40 90 40Z" fill="white" opacity="0.9"/>
<circle cx="75" cy="78" r="6" fill="#059669"/>
<circle cx="105" cy="78" r="6" fill="#059669"/>
<path d="M78 95C82 102 98 102 102 95" stroke="#059669" stroke-width="3" stroke-linecap="round" fill="none"/>
</svg>
